<svg width="22" height="25" viewBox="0 0 22 25" fill="none" xmlns="http://www.w3.org/2000/svg">
<path d="M19.5556 10.8184C19.5555 10.3722 19.3642 9.93559 19.0089 9.6068L11.2626 2.44044C11.1225 2.31098 10.8775 2.31096 10.7374 2.44044L2.9911 9.60603C2.63552 9.93495 2.44444 10.3726 2.44444 10.8191V20.9205C2.44444 21.8398 3.26289 22.6562 4.36531 22.6562H17.6347C18.7371 22.6562 19.5556 21.8398 19.5556 20.9205V10.8184ZM22 20.9205C22 23.2127 20.0038 25 17.6347 25H4.36531C1.99621 25 0 23.2127 0 20.9205V10.8191C0 9.72348 0.470793 8.6814 1.29384 7.91992L9.04015 0.754328C10.1273 -0.251443 11.8727 -0.251443 12.9599 0.754328L20.7062 7.91992C21.5291 8.68131 21.9999 9.72299 22 10.8184V20.9205Z" fill="#E5E5E5"/>
</svg>
