<svg width="25" height="25" viewBox="0 0 25 25" fill="none" xmlns="http://www.w3.org/2000/svg">
<path d="M24.925 7.34722C24.9044 6.3101 24.7081 5.28398 24.3444 4.3125C24.0302 3.47836 23.5377 2.72283 22.9014 2.09861C22.2772 1.4623 21.5216 0.969827 20.6875 0.655556C19.7165 0.29203 18.6908 0.0957312 17.6542 0.075C16.3194 0.0138889 15.8944 0 12.5 0C9.10556 0 8.68056 0.0138889 7.34722 0.075C6.3101 0.0955746 5.28398 0.291876 4.3125 0.655556C3.47787 0.969649 2.72185 1.46213 2.09722 2.09861C1.46091 2.72283 0.968438 3.47836 0.654167 4.3125C0.290641 5.28354 0.0943422 6.30918 0.0736111 7.34583C0.0138889 8.68056 0 9.10556 0 12.5C0 15.8944 0.0138889 16.3194 0.075 17.6528C0.0955746 18.6899 0.291876 19.716 0.655556 20.6875C0.969827 21.5216 1.4623 22.2772 2.09861 22.9014C2.72281 23.5377 3.47834 24.0302 4.3125 24.3444C5.28354 24.708 6.30918 24.9043 7.34583 24.925C8.68056 24.9861 9.10556 25 12.5 25C15.8944 25 16.3194 24.9861 17.6528 24.925C18.6899 24.9044 19.716 24.7081 20.6875 24.3444C21.5182 24.0233 22.2726 23.5321 22.9024 22.9024C23.5321 22.2726 24.0233 21.5182 24.3444 20.6875C24.708 19.7165 24.9043 18.6908 24.925 17.6542C24.9861 16.3194 25 15.8944 25 12.5C25 9.10556 24.9861 8.68056 24.925 7.34722ZM22.675 17.5514C22.6654 18.3435 22.5198 19.1281 22.2444 19.8708C22.0367 20.4102 21.7183 20.9 21.3097 21.3088C20.9011 21.7177 20.4114 22.0364 19.8722 22.2444C19.129 22.5199 18.344 22.6655 17.5514 22.675C16.2319 22.7347 15.8375 22.7472 12.5 22.7472C9.1625 22.7472 8.76667 22.7347 7.44861 22.675C6.65651 22.6654 5.87195 22.5198 5.12917 22.2444C4.58567 22.0444 4.09397 21.725 3.69028 21.3097C3.2752 20.9064 2.95579 20.4152 2.75556 19.8722C2.48006 19.129 2.33442 18.344 2.325 17.5514C2.26528 16.2319 2.25278 15.8375 2.25278 12.5C2.25278 9.1625 2.26528 8.76667 2.325 7.44861C2.33461 6.65651 2.48025 5.87195 2.75556 5.12917C2.95561 4.58567 3.27502 4.09397 3.69028 3.69028C4.09357 3.2752 4.58478 2.95579 5.12778 2.75556C5.871 2.48009 6.65604 2.33445 7.44861 2.325C8.76806 2.26528 9.1625 2.25278 12.5 2.25278C15.8375 2.25278 16.2333 2.26528 17.5514 2.325C18.3435 2.33461 19.1281 2.48025 19.8708 2.75556C20.4143 2.95561 20.906 3.27502 21.3097 3.69028C21.7248 4.09357 22.0442 4.58478 22.2444 5.12778C22.5199 5.871 22.6655 6.65604 22.675 7.44861C22.7347 8.76806 22.7472 9.1625 22.7472 12.5C22.7472 15.8375 22.7347 16.2333 22.675 17.5514ZM12.5 6.08056C11.2304 6.08056 9.98922 6.45705 8.93355 7.16243C7.87788 7.86781 7.05508 8.87039 6.56921 10.0434C6.08333 11.2164 5.95621 12.5071 6.2039 13.7524C6.4516 14.9976 7.06299 16.1415 7.96077 17.0392C8.85854 17.937 10.0024 18.5484 11.2476 18.7961C12.4929 19.0438 13.7836 18.9167 14.9566 18.4308C16.1296 17.9449 17.1322 17.1221 17.8376 16.0665C18.543 15.0108 18.9194 13.7696 18.9194 12.5C18.9194 10.7975 18.2431 9.16465 17.0392 7.96077C15.8354 6.75689 14.2025 6.08056 12.5 6.08056ZM12.5 16.6667C11.6759 16.6667 10.8703 16.4223 10.1851 15.9645C9.49992 15.5066 8.96587 14.8559 8.6505 14.0945C8.33514 13.3332 8.25262 12.4954 8.4134 11.6871C8.57417 10.8789 8.971 10.1364 9.55372 9.55372C10.1364 8.971 10.8789 8.57417 11.6871 8.4134C12.4954 8.25262 13.3332 8.33514 14.0945 8.6505C14.8559 8.96587 15.5066 9.49992 15.9645 10.1851C16.4223 10.8703 16.6667 11.6759 16.6667 12.5C16.6667 13.6051 16.2277 14.6649 15.4463 15.4463C14.6649 16.2277 13.6051 16.6667 12.5 16.6667ZM20.6722 5.82778C20.6722 6.12445 20.5842 6.41446 20.4194 6.66113C20.2546 6.90781 20.0203 7.10007 19.7462 7.2136C19.4722 7.32713 19.1706 7.35683 18.8796 7.29896C18.5886 7.24108 18.3213 7.09822 18.1116 6.88844C17.9018 6.67866 17.7589 6.41139 17.701 6.12041C17.6432 5.82944 17.6729 5.52784 17.7864 5.25375C17.8999 4.97966 18.0922 4.7454 18.3389 4.58057C18.5855 4.41575 18.8756 4.32778 19.1722 4.32778C19.57 4.32778 19.9516 4.48581 20.2329 4.76712C20.5142 5.04842 20.6722 5.42995 20.6722 5.82778Z" fill="#E5E5E5"/>
</svg>
