<svg width="22" height="22" viewBox="0 0 22 22" fill="none" xmlns="http://www.w3.org/2000/svg">
<path d="M15.9723 1H6.01194C3.25223 1 1.00005 3.25397 1.00005 6.01587V16C1.00005 18.746 3.25223 21 6.01194 21H15.9881C18.7479 21 21 18.746 21 15.9841V6.01587C20.9842 3.25397 18.732 1 15.9723 1ZM7.66143 17.1905H4.80655V8.93651H7.66143V17.1905ZM6.21813 7.66667C5.40925 7.66667 4.75897 7.01587 4.75897 6.20635C4.75897 5.39683 5.40925 4.74603 6.21813 4.74603C7.02701 4.74603 7.67729 5.39683 7.67729 6.20635C7.66143 7.01587 7.01115 7.66667 6.21813 7.66667ZM17.1935 17.1905H14.7986V13.1905C14.7986 12.2222 14.6717 10.9841 13.3553 10.9841C12.0072 10.9841 11.7851 12.0317 11.7851 13.127V17.1905H9.40607V8.93651H11.6265V10.0476H11.69C12.0389 9.4127 12.8478 8.92064 14.1166 8.92064C16.7336 8.92064 17.1935 10.4286 17.1935 12.6667V17.1905Z" fill="#8D8D8D" stroke="#8D8D8D" stroke-width="0.396511"/>
</svg>
