<svg width="16" height="18" viewBox="0 0 16 18" fill="none" xmlns="http://www.w3.org/2000/svg">
<path d="M11.6394 5.26718H14.6073C14.6592 5.26856 14.7108 5.25984 14.759 5.24157C14.8072 5.2233 14.851 5.19585 14.8877 5.16091C14.9244 5.12596 14.9532 5.08426 14.9724 5.03834C14.9916 4.99242 15.0007 4.94326 14.9993 4.89386C15.0026 4.84427 14.9943 4.79459 14.975 4.74846C14.9556 4.70232 14.9256 4.66089 14.8873 4.62721L11.1915 1.10736C11.1561 1.07083 11.1126 1.0423 11.0642 1.02384C11.0157 1.00539 10.9635 0.997479 10.9115 1.0007C10.8596 0.999322 10.808 1.00804 10.7598 1.02631C10.7116 1.04458 10.6678 1.07203 10.6311 1.10697C10.5944 1.14192 10.5656 1.18362 10.5464 1.22954C10.5272 1.27546 10.5181 1.32462 10.5195 1.37402V4.20056C10.5204 4.48317 10.6387 4.75396 10.8485 4.9538C11.0584 5.15364 11.3427 5.2663 11.6394 5.26718Z" fill="#8D8D8D"/>
<path d="M14.4393 6.86712H10.5195C10.0742 6.86624 9.64749 6.69739 9.33264 6.39754C9.0178 6.09769 8.84051 5.69125 8.83959 5.26719V1.53403C8.83959 1.39258 8.78059 1.25693 8.67558 1.15692C8.57056 1.0569 8.42813 1.00072 8.27962 1.00072H2.67991C2.23466 1.0016 1.8079 1.17044 1.49306 1.4703C1.17821 1.77015 1.00092 2.17659 1 2.60064V15.4001C1.00092 15.8241 1.17821 16.2306 1.49306 16.5304C1.8079 16.8303 2.23466 16.9991 2.67991 17H13.3194C13.7646 16.9991 14.1914 16.8303 14.5062 16.5304C14.8211 16.2306 14.9983 15.8241 14.9993 15.4001V7.40043C14.9993 7.33039 14.9848 7.26104 14.9566 7.19634C14.9285 7.13164 14.8873 7.07284 14.8353 7.02332C14.7833 6.9738 14.7215 6.93452 14.6536 6.90772C14.5856 6.88091 14.5128 6.86712 14.4393 6.86712ZM3.23988 6.33381C3.24614 6.19583 3.30767 6.06537 3.41183 5.96928C3.51599 5.87318 3.65485 5.81874 3.79985 5.81717H6.09223C6.16393 5.81673 6.23502 5.82974 6.30143 5.85547C6.36785 5.8812 6.4283 5.91913 6.47932 5.9671C6.53034 6.01508 6.57095 6.07216 6.59881 6.13508C6.62667 6.198 6.64125 6.26553 6.6417 6.33381V6.86379C6.63727 7.0027 6.57711 7.13471 6.47361 7.23267C6.3701 7.33063 6.23111 7.38708 6.08523 7.39043H3.79985C3.72684 7.39179 3.6543 7.3791 3.58656 7.35311C3.51883 7.32713 3.4573 7.28838 3.40566 7.23921C3.35403 7.19003 3.31335 7.13143 3.28607 7.06692C3.25878 7.00241 3.24545 6.93332 3.24688 6.86379L3.23988 6.33381ZM11.6394 13.2568C11.6394 13.3983 11.5804 13.5339 11.4754 13.6339C11.3704 13.734 11.228 13.7901 11.0795 13.7901H3.79985C3.65134 13.7901 3.50891 13.734 3.40389 13.6339C3.29888 13.5339 3.23988 13.3983 3.23988 13.2568V12.7335C3.23988 12.5921 3.29888 12.4564 3.40389 12.3564C3.50891 12.2564 3.65134 12.2002 3.79985 12.2002H11.0795C11.228 12.2002 11.3704 12.2564 11.4754 12.3564C11.5804 12.4564 11.6394 12.5921 11.6394 12.7335V13.2568ZM12.7594 10.057C12.7608 10.1279 12.7473 10.1983 12.7198 10.2641C12.6923 10.33 12.6513 10.39 12.5991 10.4406C12.547 10.4912 12.4848 10.5313 12.4162 10.5588C12.3475 10.5862 12.2738 10.6003 12.1994 10.6003H3.79985C3.65134 10.6003 3.50891 10.5441 3.40389 10.4441C3.29888 10.3441 3.23988 10.2084 3.23988 10.067V9.53365C3.23988 9.39221 3.29888 9.25658 3.40389 9.15656C3.50891 9.05655 3.65134 9.00034 3.79985 9.00034H12.1994C12.3479 9.00034 12.4904 9.05655 12.5954 9.15656C12.7004 9.25658 12.7594 9.39221 12.7594 9.53365L12.7594 10.057Z" fill="#8D8D8D"/>
<path d="M3.79985 9.00034H12.1994M3.79985 9.00034C3.49059 9.00034 3.23988 9.23911 3.23988 9.53365M3.79985 9.00034C3.65134 9.00034 3.50891 9.05655 3.40389 9.15656C3.29888 9.25658 3.23988 9.39221 3.23988 9.53365M12.1994 9.00034C12.5087 9.00034 12.7594 9.23911 12.7594 9.53365M12.1994 9.00034C12.3479 9.00034 12.4904 9.05655 12.5954 9.15656C12.7004 9.25658 12.7594 9.39221 12.7594 9.53365M12.7594 9.53365V10.067C12.7594 10.3615 12.5087 10.6003 12.1994 10.6003M12.7594 9.53365L12.7594 10.057C12.7608 10.1279 12.7473 10.1983 12.7198 10.2641C12.6923 10.33 12.6513 10.39 12.5991 10.4406C12.547 10.4912 12.4848 10.5313 12.4162 10.5588C12.3475 10.5862 12.2738 10.6003 12.1994 10.6003M12.1994 10.6003H3.79985M3.79985 10.6003C3.49059 10.6003 3.23988 10.3615 3.23988 10.067M3.79985 10.6003C3.65134 10.6003 3.50891 10.5441 3.40389 10.4441C3.29888 10.3441 3.23988 10.2084 3.23988 10.067M3.23988 10.067V9.53365M3.79985 12.2002H11.0795M3.79985 12.2002C3.49059 12.2002 3.23988 12.439 3.23988 12.7335M3.79985 12.2002C3.65134 12.2002 3.50891 12.2564 3.40389 12.3564C3.29888 12.4564 3.23988 12.5921 3.23988 12.7335M11.0795 12.2002C11.3887 12.2002 11.6394 12.439 11.6394 12.7335M11.0795 12.2002C11.228 12.2002 11.3704 12.2564 11.4754 12.3564C11.5804 12.4564 11.6394 12.5921 11.6394 12.7335M11.6394 12.7335V13.2668C11.6394 13.5614 11.3887 13.8001 11.0795 13.8001H3.79985C3.49059 13.8001 3.23988 13.5614 3.23988 13.2668V12.7335M11.6394 12.7335V13.2568C11.6394 13.3983 11.5804 13.5339 11.4754 13.6339C11.3704 13.734 11.228 13.7901 11.0795 13.7901H3.79985C3.65134 13.7901 3.50891 13.734 3.40389 13.6339C3.29888 13.5339 3.23988 13.3983 3.23988 13.2568V12.7335M11.6394 5.26718H14.6073C14.6592 5.26856 14.7108 5.25984 14.759 5.24157C14.8072 5.2233 14.851 5.19585 14.8877 5.16091C14.9244 5.12596 14.9532 5.08426 14.9724 5.03834C14.9916 4.99242 15.0007 4.94326 14.9993 4.89386C15.0026 4.84427 14.9943 4.79459 14.975 4.74846C14.9556 4.70232 14.9256 4.66089 14.8873 4.62721L11.1915 1.10736C11.1561 1.07083 11.1126 1.0423 11.0642 1.02384C11.0157 1.00539 10.9635 0.997479 10.9115 1.0007C10.8596 0.999322 10.808 1.00804 10.7598 1.02631C10.7116 1.04458 10.6678 1.07203 10.6311 1.10697C10.5944 1.14192 10.5656 1.18362 10.5464 1.22954C10.5272 1.27546 10.5181 1.32462 10.5195 1.37402V4.20056C10.5204 4.48317 10.6387 4.75396 10.8485 4.9538C11.0584 5.15364 11.3427 5.2663 11.6394 5.26718ZM14.4393 6.86712H10.5195C10.0742 6.86624 9.64749 6.69739 9.33264 6.39754C9.0178 6.09769 8.84051 5.69125 8.83959 5.26719V1.53403C8.83959 1.39258 8.78059 1.25693 8.67558 1.15692C8.57056 1.0569 8.42813 1.00072 8.27962 1.00072H2.67991C2.23466 1.0016 1.8079 1.17044 1.49306 1.4703C1.17821 1.77015 1.00092 2.17659 1 2.60064V15.4001C1.00092 15.8241 1.17821 16.2306 1.49306 16.5304C1.8079 16.8303 2.23466 16.9991 2.67991 17H13.3194C13.7646 16.9991 14.1914 16.8303 14.5062 16.5304C14.8211 16.2306 14.9983 15.8241 14.9993 15.4001V7.40043C14.9993 7.33039 14.9848 7.26104 14.9566 7.19634C14.9285 7.13164 14.8873 7.07285 14.8353 7.02332C14.7833 6.9738 14.7215 6.93452 14.6536 6.90772C14.5856 6.88091 14.5128 6.86712 14.4393 6.86712ZM3.23988 6.33381C3.24614 6.19583 3.30767 6.06537 3.41183 5.96928C3.51599 5.87318 3.65485 5.81874 3.79985 5.81717H6.09223C6.16393 5.81673 6.23502 5.82974 6.30144 5.85547C6.36785 5.8812 6.4283 5.91913 6.47932 5.9671C6.53034 6.01508 6.57095 6.07216 6.59881 6.13508C6.62667 6.198 6.64125 6.26553 6.6417 6.33381V6.86379C6.63727 7.0027 6.57711 7.13471 6.47361 7.23267C6.3701 7.33063 6.23111 7.38708 6.08523 7.39043H3.79985C3.72684 7.39179 3.6543 7.3791 3.58656 7.35311C3.51883 7.32713 3.4573 7.28838 3.40566 7.23921C3.35403 7.19003 3.31335 7.13143 3.28607 7.06692C3.25878 7.00241 3.24545 6.93332 3.24688 6.86379L3.23988 6.33381Z" stroke="#8D8D8D" stroke-width="0.5"/>
</svg>
